<svg width="127" height="29" viewBox="0 0 127 29" fill="none" xmlns="http://www.w3.org/2000/svg">
<path d="M40.2936 21.0734V7.45728H45.6205C46.0303 7.45728 46.4674 7.48489 46.9318 7.51251C47.3962 7.54013 47.8606 7.62299 48.3523 7.73346C48.8167 7.84394 49.2538 8.03727 49.6362 8.31346C50.0187 8.58965 50.3192 8.92108 50.565 9.3906C50.8109 9.8325 50.9202 10.3849 50.9202 11.0753C50.9202 11.6001 50.8109 12.0696 50.6197 12.5115C50.4284 12.9534 50.046 13.3125 49.527 13.5887C49.0079 13.8649 48.243 14.0306 47.2323 14.0858V14.1687C48.3796 14.1963 49.2538 14.362 49.8821 14.6658C50.5104 14.9696 50.9475 15.3563 51.166 15.8258C51.4119 16.2953 51.5212 16.8477 51.5212 17.4553C51.5212 18.1458 51.3846 18.7258 51.1387 19.1677C50.8928 19.6096 50.565 19.9686 50.128 20.2448C49.6909 20.521 49.2265 20.7143 48.7074 20.8248C48.1884 20.9353 47.6694 21.0181 47.1776 21.0458C46.6586 21.0734 46.1669 21.101 45.7298 21.101H40.2936V21.0734ZM42.6702 13.1191H45.32C45.8664 13.1191 46.3854 13.0915 46.8771 13.0363C47.3689 12.9811 47.7513 12.8153 48.0245 12.5668C48.325 12.3182 48.4616 11.9039 48.4616 11.3515C48.4616 10.7439 48.325 10.3296 48.0245 10.0811C47.724 9.8325 47.3415 9.66679 46.8771 9.58393C46.4127 9.52869 45.8937 9.50107 45.32 9.50107H42.6702V13.1191ZM42.6975 19.0848H45.5386C46.1669 19.0848 46.7406 19.0572 47.2596 18.9743C47.7786 18.8915 48.2157 18.7258 48.5162 18.422C48.844 18.1458 48.9806 17.6763 48.9806 17.0686C48.9806 16.4334 48.8167 15.9639 48.4889 15.6601C48.1611 15.3839 47.724 15.1906 47.1776 15.1077C46.6313 15.0248 46.0303 14.9972 45.3747 14.9972H42.6702V19.0848H42.6975Z" fill="#364CE5"/>
<path d="M52.4227 21.0734V11.1306H54.69L54.8813 14.0306L54.8539 16.1572V21.0734H52.4227ZM54.8539 16.7925L54.772 14.5829C54.772 14.2515 54.8266 13.8649 54.9632 13.4782C55.0998 13.0915 55.291 12.7049 55.5915 12.3458C55.892 11.9868 56.2745 11.7106 56.7389 11.462C57.2306 11.2411 57.8043 11.103 58.5145 11.103H58.8696V13.8649H58.5145C57.8316 13.8649 57.2579 13.9201 56.7662 14.0306C56.2745 14.141 55.9193 14.3068 55.6188 14.5277C55.3457 14.7487 55.1271 15.0525 55.0179 15.4115C54.9086 15.7982 54.8539 16.2677 54.8539 16.7925Z" fill="#364CE5"/>
<path d="M63.9781 21.322C62.8854 21.322 61.9839 21.101 61.2463 20.6591C60.5087 20.2172 59.9624 19.6372 59.5799 18.8639C59.2248 18.0906 59.0336 17.2344 59.0336 16.2401C59.0336 15.2458 59.2248 14.362 59.5799 13.5887C59.9351 12.8154 60.5087 12.2354 61.2463 11.7935C61.9839 11.3516 62.9127 11.1306 64.0054 11.1306C65.6171 11.1306 66.8464 11.6001 67.666 12.5392C68.4855 13.4782 68.9226 14.7211 68.9226 16.2401C68.9226 17.1791 68.7587 18.063 68.4035 18.8363C68.0484 19.6096 67.5021 20.2172 66.7645 20.6591C66.0269 21.0734 65.0981 21.322 63.9781 21.322ZM63.9781 19.2229C64.6883 19.2229 65.2347 19.0572 65.6171 18.7534C65.9996 18.4496 66.2454 18.063 66.382 17.5934C66.5186 17.1239 66.5733 16.6268 66.5733 16.1572C66.5733 15.6325 66.5186 15.163 66.382 14.6934C66.2454 14.2239 65.9996 13.8373 65.6171 13.5335C65.2347 13.2296 64.6883 13.0639 63.9781 13.0639C63.2678 13.0639 62.7488 13.2296 62.3663 13.5335C61.9839 13.8373 61.738 14.2515 61.6014 14.6934C61.4648 15.163 61.4102 15.6601 61.4102 16.1572C61.4102 16.6544 61.4648 17.1239 61.6014 17.5934C61.738 18.063 61.9839 18.4496 62.3663 18.7534C62.7215 19.0848 63.2678 19.2229 63.9781 19.2229Z" fill="#364CE5"/>
<path d="M72.2553 21.0734H69.7968V7.45728H72.228V21.0734H72.2553ZM72.1461 18.6705V15.881L76.435 11.0753H79.4126L72.1461 18.6705ZM74.6047 14.1963L79.4945 21.0734H76.5715L72.829 15.9086L74.6047 14.1963Z" fill="#364CE5"/>
<path d="M84.0293 21.322C82.9092 21.322 81.9804 21.0734 81.2702 20.5762C80.5599 20.0791 80.0409 19.4439 79.6858 18.6705C79.3306 17.8972 79.1667 17.0963 79.1394 16.2401C79.1121 15.2458 79.3033 14.362 79.7131 13.561C80.0955 12.7877 80.6692 12.1801 81.3794 11.7106C82.117 11.2687 82.9639 11.0477 83.9473 11.0477C84.8215 11.0477 85.6137 11.2411 86.324 11.6277C87.0342 12.0144 87.5806 12.5668 87.9903 13.2572C88.4001 13.9477 88.6186 14.7763 88.6186 15.7429C88.6186 15.7706 88.6186 15.881 88.6186 16.0191C88.6186 16.1848 88.6186 16.2953 88.6186 16.3782H81.4614C81.4614 17.2896 81.6799 18.0077 82.1443 18.5048C82.6088 19.002 83.2097 19.2505 83.9746 19.2505C84.5756 19.2505 85.0947 19.0848 85.5044 18.781C85.9142 18.4772 86.1601 18.0629 86.242 17.5658H88.6186C88.564 18.2563 88.3455 18.8915 87.9357 19.4439C87.5532 19.9962 87.0342 20.4658 86.3786 20.7972C85.723 21.1562 84.9308 21.322 84.0293 21.322ZM81.5434 15.301H86.1874C86.16 15.1906 86.1327 14.9972 86.1054 14.7763C86.0508 14.5277 85.9415 14.2791 85.8049 14.0306C85.641 13.782 85.4225 13.561 85.122 13.3677C84.8215 13.202 84.439 13.0915 83.9473 13.0915C83.4556 13.0915 83.0731 13.1744 82.7727 13.3401C82.4722 13.5058 82.2263 13.6991 82.0897 13.9477C81.9258 14.1963 81.8165 14.4449 81.7346 14.6658C81.598 14.8868 81.5707 15.1077 81.5434 15.301Z" fill="#364CE5"/>
<path d="M89.6567 21.0734V11.1306H91.9241L92.1153 14.0306L92.088 16.1572V21.0734H89.6567ZM92.088 16.7925L92.0061 14.5829C92.0061 14.2515 92.0607 13.8649 92.1973 13.4782C92.3339 13.0915 92.5251 12.7049 92.8256 12.3458C93.1261 11.9868 93.5085 11.7106 93.9729 11.462C94.4647 11.2411 95.0383 11.103 95.7486 11.103H96.1037V13.8649H95.7486C95.0656 13.8649 94.492 13.9201 94.0003 14.0306C93.5085 14.141 93.1534 14.3068 92.8529 14.5277C92.5797 14.7487 92.3612 15.0525 92.2519 15.4115C92.17 15.7982 92.088 16.2677 92.088 16.7925Z" fill="#364CE5"/>
<path d="M97.2237 21.0734V7.45728H102.086C102.551 7.45728 103.015 7.4849 103.507 7.54013C103.998 7.59537 104.463 7.67823 104.9 7.81632C105.337 7.95442 105.747 8.14775 106.075 8.42394C106.43 8.70012 106.703 9.03155 106.894 9.47345C107.085 9.88774 107.195 10.4401 107.195 11.0753C107.195 11.6001 107.085 12.0696 106.894 12.5391C106.703 12.9811 106.348 13.3401 105.829 13.6163C105.31 13.8925 104.572 14.0306 103.589 14.0582V14.141C104.709 14.141 105.583 14.3068 106.184 14.6106C106.785 14.9144 107.195 15.3287 107.441 15.8258C107.686 16.3229 107.796 16.8753 107.796 17.4829C107.796 18.1182 107.686 18.6705 107.468 19.1124C107.249 19.5543 106.949 19.8858 106.566 20.162C106.184 20.4105 105.774 20.6039 105.31 20.742C104.845 20.88 104.354 20.9629 103.835 21.0181C103.316 21.0734 102.824 21.101 102.359 21.101H97.2237V21.0734ZM98.7535 13.423H101.922C102.66 13.423 103.316 13.3677 103.889 13.2849C104.436 13.202 104.873 12.9811 105.2 12.6772C105.501 12.3734 105.665 11.8763 105.665 11.2134C105.665 10.4677 105.501 9.91536 105.146 9.55631C104.791 9.19727 104.354 9.00393 103.78 8.92108C103.206 8.83822 102.605 8.78298 101.95 8.78298H98.7535V13.423ZM98.7535 19.7753H102.223C102.96 19.7753 103.616 19.7201 104.217 19.6096C104.818 19.4991 105.282 19.2782 105.665 18.9191C106.047 18.5601 106.211 18.0353 106.211 17.3172C106.211 16.5715 106.02 15.9915 105.638 15.6325C105.255 15.2734 104.736 15.0248 104.108 14.8868C103.479 14.7487 102.769 14.6934 101.977 14.6934H98.7535V19.7753Z" fill="white"/>
<path d="M112.986 21.322C111.948 21.322 111.074 21.101 110.391 20.6591C109.708 20.2172 109.189 19.6372 108.834 18.8639C108.479 18.1182 108.315 17.2344 108.315 16.2677C108.315 15.2734 108.479 14.4173 108.834 13.6439C109.189 12.8706 109.708 12.2906 110.391 11.8487C111.074 11.4068 111.948 11.1859 112.986 11.1859C114.488 11.1859 115.663 11.6554 116.455 12.5668C117.248 13.5058 117.657 14.7211 117.657 16.2677C117.657 17.2068 117.493 18.063 117.166 18.8363C116.838 19.582 116.319 20.1896 115.636 20.6315C114.926 21.0734 114.051 21.322 112.986 21.322ZM112.986 19.9687C113.833 19.9687 114.489 19.7753 114.926 19.4163C115.363 19.0572 115.69 18.5601 115.882 18.0077C116.073 17.4277 116.155 16.8477 116.155 16.2677C116.155 15.6601 116.073 15.0801 115.882 14.5001C115.69 13.9201 115.39 13.4506 114.926 13.0639C114.489 12.7049 113.833 12.5116 112.986 12.5116C112.166 12.5116 111.538 12.7049 111.074 13.0639C110.609 13.423 110.282 13.9201 110.118 14.5001C109.954 15.0801 109.844 15.6601 109.844 16.2677C109.844 16.8753 109.926 17.4553 110.118 18.0077C110.282 18.5877 110.609 19.0572 111.074 19.4163C111.511 19.7753 112.166 19.9687 112.986 19.9687Z" fill="white"/>
<path d="M117.876 21.0734L121.427 15.9915L118.04 11.2134H119.788L122.411 14.9972L125.033 11.2134H126.781L123.394 15.9915L127 21.0734H125.252L122.438 17.0134L119.624 21.0734H117.876Z" fill="white"/>
<path d="M22.2093 6.49063H14.6696C10.6266 6.49063 7.34846 9.88776 7.34846 13.9753V21.5982C7.34846 21.8743 7.34846 22.2334 7.4031 22.5096C3.36008 22.482 0 19.1125 0 15.0249V7.40206C0 3.31446 3.36008 0.000199402 7.4031 0.000199402H14.9428C18.7126 -0.0274195 21.7995 2.81732 22.2093 6.49063Z" fill="#364CE5"/>
<path d="M29.6124 13.9753V21.5981C29.6124 25.6857 26.2523 29 22.2093 29H14.6696C10.8997 29 7.81284 26.1552 7.40308 22.4819H14.9428C18.9858 22.4819 22.2912 19.1124 22.2912 15.0248V7.40202C22.2912 7.12584 22.2912 6.76679 22.2366 6.4906C26.2523 6.4906 29.6124 9.88772 29.6124 13.9753Z" fill="white"/>
</svg>
