<svg width="22" height="22" viewBox="0 0 22 22" fill="none" xmlns="http://www.w3.org/2000/svg">
<path d="M20.3077 0H1.69231C1.24348 0 0.813035 0.178296 0.495665 0.495665C0.178296 0.813035 0 1.24348 0 1.69231V20.3077C0 20.7565 0.178296 21.187 0.495665 21.5043C0.813035 21.8217 1.24348 22 1.69231 22H20.3077C20.7565 22 21.187 21.8217 21.5043 21.5043C21.8217 21.187 22 20.7565 22 20.3077V1.69231C22 1.24348 21.8217 0.813035 21.5043 0.495665C21.187 0.178296 20.7565 0 20.3077 0ZM20.3077 20.3077H1.69231V1.69231H20.3077V20.3077ZM7.61538 9.30769V16.0769C7.61538 16.3013 7.52624 16.5166 7.36755 16.6752C7.20887 16.8339 6.99364 16.9231 6.76923 16.9231C6.54482 16.9231 6.32959 16.8339 6.17091 16.6752C6.01223 16.5166 5.92308 16.3013 5.92308 16.0769V9.30769C5.92308 9.08328 6.01223 8.86806 6.17091 8.70937C6.32959 8.55069 6.54482 8.46154 6.76923 8.46154C6.99364 8.46154 7.20887 8.55069 7.36755 8.70937C7.52624 8.86806 7.61538 9.08328 7.61538 9.30769ZM16.9231 12.2692V16.0769C16.9231 16.3013 16.8339 16.5166 16.6752 16.6752C16.5166 16.8339 16.3013 16.9231 16.0769 16.9231C15.8525 16.9231 15.6373 16.8339 15.4786 16.6752C15.3199 16.5166 15.2308 16.3013 15.2308 16.0769V12.2692C15.2308 11.7082 15.0079 11.1701 14.6112 10.7734C14.2145 10.3767 13.6764 10.1538 13.1154 10.1538C12.5543 10.1538 12.0163 10.3767 11.6196 10.7734C11.2229 11.1701 11 11.7082 11 12.2692V16.0769C11 16.3013 10.9109 16.5166 10.7522 16.6752C10.5935 16.8339 10.3783 16.9231 10.1538 16.9231C9.92943 16.9231 9.71421 16.8339 9.55552 16.6752C9.39684 16.5166 9.30769 16.3013 9.30769 16.0769V9.30769C9.30874 9.10043 9.38583 8.90077 9.52432 8.74657C9.66282 8.59237 9.85309 8.49437 10.059 8.47115C10.265 8.44793 10.4723 8.50111 10.6417 8.62061C10.811 8.7401 10.9306 8.9176 10.9778 9.11942C11.5502 8.73112 12.2176 8.50606 12.9082 8.46843C13.5989 8.4308 14.2868 8.58202 14.898 8.90583C15.5092 9.22965 16.0206 9.71384 16.3774 10.3064C16.7342 10.899 16.9228 11.5775 16.9231 12.2692ZM8.03846 6.34615C8.03846 6.59718 7.96402 6.84258 7.82456 7.0513C7.68509 7.26002 7.48687 7.42271 7.25494 7.51877C7.02302 7.61484 6.76782 7.63997 6.52162 7.591C6.27541 7.54202 6.04925 7.42114 5.87175 7.24364C5.69424 7.06613 5.57336 6.83998 5.52439 6.59377C5.47541 6.34756 5.50055 6.09236 5.59661 5.86044C5.69268 5.62852 5.85536 5.43029 6.06408 5.29083C6.27281 5.15136 6.5182 5.07692 6.76923 5.07692C7.10585 5.07692 7.42869 5.21065 7.66671 5.44867C7.90474 5.6867 8.03846 6.00953 8.03846 6.34615Z" fill="white"/>
</svg>
