<svg width="353" height="79" viewBox="0 0 353 79" fill="none" xmlns="http://www.w3.org/2000/svg">
<path d="M111.997 57.4068V20.3147H126.804C127.943 20.3147 129.157 20.3899 130.448 20.4651C131.739 20.5404 133.03 20.7661 134.397 21.067C135.687 21.368 136.902 21.8947 137.965 22.647C139.028 23.3994 139.864 24.3023 140.547 25.5813C141.23 26.7851 141.534 28.2899 141.534 30.1708C141.534 31.6003 141.23 32.8794 140.699 34.0832C140.167 35.287 139.104 36.265 137.662 37.0174C136.219 37.7698 134.093 38.2212 131.283 38.3717V38.5974C134.473 38.6726 136.902 39.1241 138.649 39.9517C140.395 40.7793 141.61 41.8326 142.217 43.1117C142.901 44.3907 143.205 45.8955 143.205 47.5507C143.205 49.4316 142.825 51.0116 142.142 52.2154C141.458 53.4192 140.547 54.3973 139.332 55.1497C138.117 55.9021 136.826 56.4287 135.384 56.7297C133.941 57.0306 132.498 57.2563 131.132 57.3316C129.689 57.4068 128.322 57.482 127.107 57.482H111.997V57.4068ZM118.603 35.7384H125.968C127.487 35.7384 128.93 35.6631 130.296 35.5127C131.663 35.3622 132.726 34.9108 133.485 34.2336C134.321 33.5565 134.7 32.4279 134.7 30.9232C134.7 29.2679 134.321 28.1394 133.485 27.4622C132.65 26.7851 131.587 26.3337 130.296 26.108C129.006 25.9575 127.563 25.8823 125.968 25.8823H118.603V35.7384ZM118.679 51.9897H126.576C128.322 51.9897 129.917 51.9145 131.359 51.6888C132.802 51.463 134.017 51.0116 134.852 50.184C135.763 49.4316 136.143 48.1526 136.143 46.4974C136.143 44.7669 135.687 43.4879 134.776 42.6602C133.865 41.9079 132.65 41.3812 131.132 41.1555C129.613 40.9298 127.943 40.8545 126.12 40.8545H118.603V51.9897H118.679Z" fill="#364CE5"/>
<path d="M145.71 57.4068V30.3213H152.012L152.544 38.2212L152.468 44.0145V57.4068H145.71ZM152.468 45.745L152.24 39.726C152.24 38.8231 152.392 37.7698 152.772 36.7165C153.151 35.6631 153.683 34.6098 154.518 33.6317C155.353 32.6536 156.416 31.9013 157.707 31.2241C159.074 30.6222 160.669 30.246 162.643 30.246H163.63V37.7698H162.643C160.744 37.7698 159.15 37.9203 157.783 38.2212C156.416 38.5222 155.429 38.9736 154.594 39.5755C153.835 40.1774 153.227 41.005 152.924 41.9831C152.62 43.0364 152.468 44.3155 152.468 45.745Z" fill="#364CE5"/>
<path d="M177.829 58.084C174.792 58.084 172.286 57.4821 170.236 56.2782C168.186 55.0744 166.667 53.4945 165.604 51.3878C164.617 49.2812 164.085 46.9488 164.085 44.2402C164.085 41.5317 164.617 39.1241 165.604 37.0174C166.591 34.9108 168.186 33.3308 170.236 32.127C172.286 30.9232 174.867 30.3213 177.905 30.3213C182.385 30.3213 185.801 31.6003 188.079 34.1584C190.357 36.7165 191.572 40.1022 191.572 44.2402C191.572 46.7983 191.117 49.2059 190.129 51.3126C189.142 53.4192 187.624 55.0744 185.574 56.2782C183.524 57.4068 180.942 58.084 177.829 58.084ZM177.829 52.3659C179.803 52.3659 181.322 51.9145 182.385 51.0869C183.448 50.2592 184.131 49.2059 184.511 47.9269C184.89 46.6478 185.042 45.2936 185.042 44.0145C185.042 42.585 184.89 41.306 184.511 40.0269C184.131 38.7479 183.448 37.6946 182.385 36.8669C181.322 36.0393 179.803 35.5879 177.829 35.5879C175.855 35.5879 174.412 36.0393 173.349 36.8669C172.286 37.6946 171.602 38.8231 171.223 40.0269C170.843 41.306 170.691 42.6602 170.691 44.0145C170.691 45.3688 170.843 46.6478 171.223 47.9269C171.602 49.2059 172.286 50.2592 173.349 51.0869C174.336 51.9897 175.855 52.3659 177.829 52.3659Z" fill="#364CE5"/>
<path d="M200.836 57.4068H194.002V20.3147H200.76V57.4068H200.836ZM200.532 50.8611V43.2621L212.453 30.1708H220.729L200.532 50.8611ZM207.366 38.6726L220.957 57.4068H212.833L202.43 43.3374L207.366 38.6726Z" fill="#364CE5"/>
<path d="M233.562 58.084C230.449 58.084 227.867 57.4068 225.893 56.0526C223.918 54.6983 222.476 52.9678 221.489 50.8612C220.502 48.7545 220.046 46.5726 219.97 44.2403C219.894 41.5317 220.426 39.1241 221.565 36.9422C222.628 34.8355 224.222 33.1803 226.196 31.9013C228.247 30.6975 230.6 30.0956 233.334 30.0956C235.764 30.0956 237.966 30.6222 239.94 31.6756C241.914 32.7289 243.433 34.2336 244.572 36.1146C245.711 37.9955 246.318 40.2527 246.318 42.886C246.318 42.9612 246.318 43.2622 246.318 43.6384C246.318 44.0898 246.318 44.3907 246.318 44.6164H226.424C226.424 47.0993 227.032 49.0555 228.322 50.4097C229.613 51.764 231.284 52.4412 233.41 52.4412C235.08 52.4412 236.523 51.9897 237.662 51.1621C238.801 50.3345 239.484 49.2059 239.712 47.8517H246.318C246.166 49.7326 245.559 51.4631 244.42 52.9678C243.357 54.4726 241.914 55.7516 240.092 56.6545C238.269 57.6325 236.067 58.084 233.562 58.084ZM226.652 41.6822H239.56C239.484 41.3812 239.408 40.8546 239.332 40.2527C239.181 39.5755 238.877 38.8984 238.497 38.2212C238.042 37.5441 237.434 36.9422 236.599 36.4155C235.764 35.9641 234.701 35.6632 233.334 35.6632C231.967 35.6632 230.904 35.8889 230.069 36.3403C229.234 36.7917 228.55 37.3184 228.171 37.9955C227.715 38.6727 227.411 39.3498 227.184 39.9517C226.804 40.5536 226.728 41.1555 226.652 41.6822Z" fill="#364CE5"/>
<path d="M249.203 57.4068V30.3213H255.505L256.037 38.2212L255.961 44.0145V57.4068H249.203ZM255.961 45.745L255.733 39.726C255.733 38.8231 255.885 37.7698 256.265 36.7165C256.644 35.6631 257.176 34.6098 258.011 33.6317C258.846 32.6536 259.909 31.9013 261.2 31.2241C262.567 30.6222 264.162 30.246 266.136 30.246H267.123V37.7698H266.136C264.237 37.7698 262.643 37.9203 261.276 38.2212C259.909 38.5222 258.922 38.9736 258.087 39.5755C257.328 40.1774 256.72 41.005 256.417 41.9831C256.189 43.0364 255.961 44.3155 255.961 45.745Z" fill="#364CE5"/>
<path d="M270.236 57.4068V20.3147H283.752C285.042 20.3147 286.333 20.3899 287.7 20.5404C289.067 20.6909 290.357 20.9166 291.572 21.2928C292.787 21.6689 293.926 22.1956 294.837 22.948C295.824 23.7004 296.584 24.6032 297.115 25.807C297.647 26.9356 297.951 28.4403 297.951 30.1708C297.951 31.6003 297.647 32.8793 297.115 34.1584C296.584 35.3622 295.597 36.3403 294.154 37.0927C292.711 37.845 290.661 38.2212 287.928 38.2965V38.5222C291.041 38.5222 293.471 38.9736 295.141 39.8012C296.812 40.6288 297.951 41.7574 298.634 43.1117C299.317 44.4659 299.621 45.9707 299.621 47.6259C299.621 49.3564 299.317 50.8611 298.71 52.0649C298.102 53.2687 297.267 54.1716 296.204 54.924C295.141 55.6011 294.002 56.1278 292.711 56.504C291.421 56.8801 290.054 57.1059 288.611 57.2563C287.168 57.4068 285.802 57.482 284.511 57.482H270.236V57.4068ZM274.488 36.566H283.296C285.346 36.566 287.168 36.4155 288.763 36.1898C290.282 35.9641 291.496 35.3622 292.408 34.5346C293.243 33.707 293.698 32.3527 293.698 30.547C293.698 28.5156 293.243 27.0108 292.256 26.0327C291.269 25.0546 290.054 24.528 288.459 24.3023C286.865 24.0765 285.194 23.9261 283.372 23.9261H274.488V36.566ZM274.488 53.8706H284.131C286.181 53.8706 288.004 53.7202 289.674 53.4192C291.345 53.1183 292.635 52.5164 293.698 51.5383C294.761 50.5602 295.217 49.1307 295.217 47.1745C295.217 45.1431 294.686 43.5631 293.623 42.585C292.559 41.6069 291.117 40.9298 289.37 40.5536C287.624 40.1774 285.65 40.0269 283.448 40.0269H274.488V53.8706Z" fill="white"/>
<path d="M314.048 58.084C311.162 58.084 308.733 57.4821 306.834 56.2783C304.936 55.0745 303.493 53.4945 302.506 51.3878C301.519 49.3564 301.064 46.9488 301.064 44.3155C301.064 41.6069 301.519 39.2746 302.506 37.1679C303.493 35.0613 304.936 33.4813 306.834 32.2775C308.733 31.0737 311.162 30.4718 314.048 30.4718C318.224 30.4718 321.489 31.7508 323.691 34.2336C325.893 36.7917 327.032 40.1022 327.032 44.3155C327.032 46.8736 326.576 49.2059 325.665 51.3126C324.754 53.344 323.311 54.9992 321.413 56.203C319.439 57.4068 317.009 58.084 314.048 58.084ZM314.048 54.3973C316.402 54.3973 318.224 53.8707 319.439 52.8926C320.654 51.9145 321.565 50.5602 322.096 49.0555C322.628 47.4755 322.856 45.8955 322.856 44.3155C322.856 42.6603 322.628 41.0803 322.096 39.5003C321.565 37.9203 320.73 36.6412 319.439 35.5879C318.224 34.6098 316.402 34.0832 314.048 34.0832C311.77 34.0832 310.023 34.6098 308.733 35.5879C307.442 36.566 306.531 37.9203 306.075 39.5003C305.619 41.0803 305.316 42.6603 305.316 44.3155C305.316 45.9707 305.544 47.5507 306.075 49.0555C306.531 50.6354 307.442 51.9145 308.733 52.8926C309.948 53.8707 311.77 54.3973 314.048 54.3973Z" fill="white"/>
<path d="M327.639 57.4068L337.51 43.5631L328.095 30.547H332.954L340.244 40.8546L347.533 30.547H352.393L342.977 43.5631L353 57.4068H348.14L340.32 46.3469L332.499 57.4068H327.639Z" fill="white"/>
<path d="M61.7313 17.6814H40.7746C29.5369 17.6814 20.4253 26.9356 20.4253 38.0708V58.8364C20.4253 59.5887 20.4253 60.5668 20.5771 61.3192C9.33943 61.244 0 52.065 0 40.9298V20.1642C0 9.02906 9.33943 0.000543199 20.5771 0.000543199H41.5339C52.0123 -0.0746944 60.5924 7.67478 61.7313 17.6814Z" fill="#364CE5"/>
<path d="M82.3085 38.0707V58.8363C82.3085 69.9715 72.9691 79 61.7314 79H40.7746C30.2962 79 21.7161 71.2505 20.5771 61.2439H41.5339C52.7716 61.2439 61.9592 52.0649 61.9592 40.9298V20.1642C61.9592 19.4118 61.9592 18.4337 61.8073 17.6813C72.9691 17.6813 82.3085 26.9356 82.3085 38.0707Z" fill="white"/>
</svg>
