<svg width="21" height="20" viewBox="0 0 21 20" fill="none" xmlns="http://www.w3.org/2000/svg">
<path d="M20.6472 19.4729C19.6106 18.0677 18.5727 16.6638 17.5365 15.2576C16.6198 14.0139 15.7053 12.7684 14.7903 11.5233C14.043 10.5056 13.2973 9.48655 12.55 8.46927C12.5087 8.41298 12.4438 8.3785 12.5285 8.29427C12.6656 8.15811 12.7842 8.00231 12.9148 7.85873C13.5965 7.10985 14.2793 6.36141 14.9622 5.6134C15.8918 4.59394 16.8218 3.57448 17.7518 2.55546C18.4829 1.75378 19.2152 0.952962 19.9462 0.151275C19.9772 0.117235 20.0451 0.0897406 20.0047 0.0316979C19.9883 0.00813173 19.9286 0.00944096 19.8882 0.00944096C19.4382 0.00813173 18.987 0.0260246 18.5383 0.00158556C18.2843 -0.0123796 18.0991 0.0653016 17.9491 0.258632C17.7811 0.475528 17.5851 0.665803 17.4003 0.866989C16.5115 1.83626 15.6275 2.80989 14.7422 3.78222C14.3451 4.21819 13.9497 4.65504 13.5535 5.09145C12.9454 5.76178 12.3368 6.43167 11.7296 7.10243C11.6569 7.18273 11.6191 7.21808 11.5293 7.09327C10.8064 6.0965 10.072 5.10847 9.34136 4.11738C8.37353 2.80596 7.40441 1.49542 6.44131 0.180078C6.35278 0.0591918 6.26553 0.00420403 6.11254 0.00464044C4.16914 0.0103138 2.22575 0.00856814 0.282355 0.00856814H0.0472741C0.162021 0.246412 0.321034 0.418358 0.458129 0.605142C1.10492 1.48713 1.75 2.36999 2.39894 3.25023C3.28168 4.44731 4.16742 5.6422 5.05145 6.8384C5.54869 7.51135 6.04592 8.18386 6.5423 8.85724C7.05071 9.54808 7.55783 10.2402 8.06625 10.9311C8.12297 11.0079 8.13845 11.0681 8.05335 11.1432C7.93474 11.2475 7.82601 11.3636 7.71943 11.4805C6.91791 12.3638 6.11941 13.2497 5.31747 14.1326C4.8731 14.6218 4.42184 15.1049 3.97747 15.5946C3.19959 16.4504 2.42645 17.311 1.64729 18.1659C1.19689 18.6599 0.737475 19.1452 0.285793 19.637C0.188237 19.7431 0.104433 19.8627 0 19.994C0.577173 19.994 1.11997 19.9844 1.66233 19.9997C1.83681 20.0049 1.95285 19.9434 2.03837 19.8112C2.12561 19.6754 2.24466 19.5724 2.35124 19.4564C2.77456 18.9964 3.20088 18.539 3.62248 18.0773C4.48502 17.1316 5.34627 16.1846 6.20708 15.2367C6.63169 14.7684 7.05071 14.2954 7.47618 13.8284C7.94591 13.3134 8.42295 12.805 8.89096 12.2883C8.97735 12.1927 9.02247 12.225 9.08178 12.3053C9.59578 13.0045 10.1106 13.7023 10.6246 14.401C11.9582 16.216 13.2926 18.0306 14.6223 19.8487C14.7035 19.9595 14.7852 19.9975 14.9188 19.9971C16.8837 19.9927 18.8486 19.9945 20.8135 19.9923C20.8715 19.9923 20.9385 20.0211 21 19.9578C20.8814 19.795 20.7653 19.6331 20.6472 19.4729ZM15.5519 18.6023C15.4707 18.6023 15.4195 18.5713 15.374 18.5085C14.6472 17.5152 13.9218 16.5211 13.1925 15.53C12.1572 14.1234 11.1184 12.719 10.0818 11.3134C9.17289 10.0814 8.26437 8.84851 7.35584 7.61609C6.34805 6.24925 5.34025 4.88241 4.33288 3.51557C3.85756 2.87055 3.38267 2.22554 2.90864 1.58008C2.88415 1.54648 2.86782 1.5072 2.83344 1.44523H3.05949C3.86659 1.44523 4.67412 1.44654 5.48121 1.44349C5.57963 1.44305 5.64366 1.46269 5.70899 1.55259C6.30593 2.37261 6.91147 3.18608 7.51314 4.0026C8.23342 4.97973 8.95242 5.95773 9.67227 6.93529C10.8172 8.48978 11.9625 10.0438 13.1065 11.5988C14.2811 13.1952 15.453 14.7937 16.6284 16.3893C17.1635 17.1159 17.7037 17.8377 18.2706 18.6006C17.335 18.6006 16.4432 18.5997 15.5519 18.6023Z" fill="white"/>
</svg>
